<svg xmlns="http://www.w3.org/2000/svg" xmlns:xlink="http://www.w3.org/1999/xlink" width="50" zoomAndPan="magnify" viewBox="0 0 37.5 37.499999" height="50" preserveAspectRatio="xMidYMid meet" version="1.0"><defs><clipPath id="87caeb0d9a"><path d="M 0 0 L 37.007812 0 L 37.007812 37.007812 L 0 37.007812 Z M 0 0 " clip-rule="nonzero"/></clipPath><clipPath id="7b6d71562e"><path d="M 12.355469 11.292969 L 24.9375 11.292969 L 24.9375 24 L 12.355469 24 Z M 12.355469 11.292969 " clip-rule="nonzero"/></clipPath></defs><g clip-path="url(#87caeb0d9a)"><path fill="#ffffff" d="M 0 0 L 37.007812 0 L 37.007812 37.007812 L 0 37.007812 Z M 0 0 " fill-opacity="1" fill-rule="nonzero"/><path fill="#ffffff" d="M 0 0 L 37.007812 0 L 37.007812 37.007812 L 0 37.007812 Z M 0 0 " fill-opacity="1" fill-rule="nonzero"/></g><g clip-path="url(#7b6d71562e)"><path fill="#000000" d="M 18.636719 11.308594 C 15.171875 11.308594 12.347656 14.019531 12.347656 17.347656 C 12.695312 25.363281 24.578125 25.359375 24.925781 17.347656 C 24.925781 14.019531 22.105469 11.308594 18.636719 11.308594 Z M 18.636719 21.75 C 17.734375 21.75 16.875 21.5 16.125 21.027344 L 22.464844 14.9375 C 22.953125 15.65625 23.210938 16.484375 23.210938 17.347656 C 23.210938 19.777344 21.160156 21.75 18.636719 21.75 Z M 18.636719 12.949219 C 19.5625 12.949219 20.441406 13.210938 21.195312 13.703125 L 14.84375 19.804688 C 14.332031 19.082031 14.0625 18.238281 14.0625 17.347656 C 14.0625 14.921875 16.113281 12.949219 18.636719 12.949219 Z M 18.636719 12.949219 " fill-opacity="1" fill-rule="nonzero"/></g></svg>